<?xml version="1.0" encoding="UTF-8"?>
<svg id="b" data-name="Ebene 2" xmlns="http://www.w3.org/2000/svg" viewBox="0 0 119.17 119.19">
  <g id="c" data-name="Ebene 1">
    <g>
      <path d="m12.19,93.76c-7,1.99-8.18-4.61-10.44-9.17-3.16-6.36-1.99-12.38,3.09-17.52.59-.6-.17-1.31-.32-1.95-.91-3.93-2.13-7.81-2.76-11.79-.92-5.82-.68-11.65,1.03-17.37,2.93-9.81,8.67-17.64,16.59-24,4.2-3.38,8.79-6.06,13.78-8.08C40.77.8,48.71-.61,56.88.25c9.09.95,17.44,4.15,25.01,9.3,9.05,6.15,15.7,14.2,19.62,24.51.39,1.04,2.09-.11,3.05-.51,3.71-1.54,5.17-4.52,5.31-8.43.1-2.9,2.49-4.7,5.33-4.33,2.54.33,4.21,3.05,3.93,5.8-.5,5.03-2.23,9.36-6.2,12.64-.02.02.07.24.16.32,4.22,3.76,6.19,8.54,5.96,14.11-.11,2.68-1.97,4.32-4.62,4.28-2.97-.05-4.4-1.98-4.73-4.89-.67-5.94-4.19-9.05-10.17-9.06-29.43,0-58.85,0-88.28,0-1.04,0-.64.85-.66,1.27-.18,4.91.6,9.71,2.01,14.39.65,2.16,1.33,4.33,2.28,6.37,2.02,4.33-.87,6.02-3.77,8.15-2.7,1.99-1.94,8.49,1.1,10,1.3.65,3.12.28,4.71.35,8.66.36,15.58,6.45,17.17,15.19.39,2.13.44,4.34,1.07,6.38.22.71,1.66,1.18,2.63,1.49,9.72,3.1,19.44,2.98,29.16-.12,3.53-1.13,2.7-4.28,2.87-6.67.59-8.32,9.11-16.44,17.42-16.27,4.68.09,6.47-1.01,7.63-5.66.51-2.03-.29-4.26-2.49-5.3-3.57-1.69-4.35-4.83-2.35-8.47,1.25-2.28,1.72-4.99,3-7.24,1.17-2.05,3.43-2.27,5.45-1.29,1.79.87,2.93,2.29,2.56,4.65-.15.94-.24,1.94-.72,2.67-1.98,3.03.68,4.65,1.87,6.73,3.19,5.56,1.88,10.72-.62,16.28-2.49,5.52-5.99,7.89-11.91,6.92-1.12-.18-2.36-.06-3.47.2-4.72,1.11-7.2,4.44-7.09,9,.26,10.67-7.01,13.36-15.27,14.94-10.96,2.1-21.81,1.84-32.17-2.89-2.61-1.19-5.21-2.6-5.63-5.99-.42-3.34-.41-6.78-1.68-9.94-1.63-4.01-4.71-5.36-12.14-5.36Zm79.54-59.08c-.65-1.26-1.21-2.49-1.9-3.64-6.34-10.49-15.61-17.02-27.33-20.27-6.09-1.69-12.26-1.9-18.39-.63-5.38,1.11-10.47,3.17-15.12,6.2-.13.09-.24.21-.37.32.17.03.33.07.5.08,4.44,0,8.88-.1,13.31.04,2.84.09,4.83,1.62,4.82,4.64,0,2.63-1.5,4.52-4.26,4.57-7.98.14-15.96.08-23.94.14-.4,0-.94.25-1.19.56-1.94,2.43-3.46,5.12-4.71,7.99h78.6Z" style="fill: #3a77ff;"/>
      <path d="m31.03,69.04c-5.08.1-8.26-3.43-8.92-8.81-.28-2.27-1.32-4.85.39-6.71,1.88-2.05,4.64-1.27,7.03-.74,3.75.83,7.54.8,11.33.93,2.06.07,4.18.28,5.07,2.54.99,2.52.39,4.82-1.52,6.71-3.99,3.94-8.95,5.65-13.38,6.07Z" style="fill: #3a77ff;"/>
      <path d="m67.25,53.37c3.28.34,7.03-1.09,10.88-.92,4.47.2,4.6.52,4.37,5.64-.24,5.36-3.01,9.88-6.79,10.41-4.16.58-7.98-.96-11.62-2.82-2.23-1.14-4.37-2.55-5.44-4.85-2.04-4.41,0-7.3,5.03-7.46.99-.03,1.98,0,3.57,0Z" style="fill: #3a77ff;"/>
      <path d="m43.89,84.99c1.45-4.8,2.63-10.2,6.67-14.12,1.91-1.85,4.9-.36,6.48,3.02,1.41,3,2.66,6.08,3.8,9.19.67,1.83.79,3.59-1.79,4.34-1.42.41-2.8,1.19-3.99,2.08-3.38,2.52-5.48-.75-8.01-1.75-1.11-.44-2.91-.45-3.16-2.77Z" style="fill: #3a77ff;"/>
    </g>
  </g>
</svg>