<svg version="1.2" xmlns="http://www.w3.org/2000/svg" viewBox="0 0 489 130" width="488" height="130">
	<title>uTube-ai</title>
	<style>
		.s0 { fill: #3a77ff } 
	</style>
	<g id="Ebene 1">
		<g id="&lt;Group&gt;">
			<g id="&lt;Group&gt;">
				<path id="&lt;Compound Path&gt;" fill-rule="evenodd" class="s0" d="m18.2 98.6c-7 2-8.1-4.6-10.4-9.2-3.2-6.4-2-12.4 3.1-17.5 0.6-0.6-0.2-1.3-0.3-2-1-3.9-2.2-7.8-2.8-11.8-0.9-5.8-0.7-11.6 1-17.3 3-9.8 8.7-17.7 16.6-24q6.3-5.1 13.8-8.1c7.6-3.1 15.6-4.5 23.7-3.6 9.1 0.9 17.5 4.1 25 9.2 9.1 6.2 15.7 14.2 19.7 24.6 0.4 1 2.1-0.2 3-0.6 3.7-1.5 5.2-4.5 5.3-8.4 0.1-2.9 2.5-4.7 5.4-4.3 2.5 0.3 4.2 3 3.9 5.8-0.5 5-2.2 9.3-6.2 12.6 0 0 0.1 0.3 0.1 0.3 4.3 3.8 6.2 8.6 6 14.2-0.1 2.6-2 4.3-4.6 4.2-3 0-4.4-1.9-4.7-4.9-0.7-5.9-4.2-9-10.2-9q-44.1 0-88.3 0c-1 0-0.6 0.8-0.6 1.3-0.2 4.9 0.6 9.7 2 14.3 0.6 2.2 1.3 4.4 2.2 6.4 2.1 4.3-0.8 6-3.7 8.2-2.7 2-2 8.5 1.1 10 1.3 0.6 3.1 0.3 4.7 0.3 8.6 0.4 15.6 6.5 17.2 15.2 0.3 2.1 0.4 4.3 1 6.4 0.2 0.7 1.7 1.2 2.6 1.5 9.8 3.1 19.5 3 29.2-0.1 3.5-1.2 2.7-4.3 2.9-6.7 0.6-8.3 9.1-16.5 17.4-16.3 4.7 0.1 6.5-1 7.6-5.6 0.5-2.1-0.3-4.3-2.5-5.3-3.5-1.7-4.3-4.9-2.3-8.5 1.2-2.3 1.7-5 3-7.3 1.1-2 3.4-2.2 5.4-1.2 1.8 0.8 3 2.2 2.6 4.6-0.2 0.9-0.3 1.9-0.7 2.7-2 3 0.6 4.6 1.8 6.7 3.2 5.6 1.9 10.7-0.6 16.3-2.5 5.5-6 7.9-11.9 6.9-1.1-0.2-2.3-0.1-3.5 0.2-4.7 1.1-7.2 4.4-7.1 9 0.3 10.7-7 13.4-15.2 14.9-11 2.1-21.8 1.9-32.2-2.8-2.6-1.2-5.2-2.6-5.6-6-0.5-3.4-0.4-6.8-1.7-10-1.6-4-4.7-5.3-12.2-5.3zm79.6-59.1c-0.7-1.3-1.2-2.5-1.9-3.7-6.4-10.5-15.6-17-27.4-20.2-6-1.7-12.2-1.9-18.3-0.7-5.4 1.2-10.5 3.2-15.2 6.2-0.1 0.1-0.2 0.3-0.3 0.4 0.1 0 0.3 0 0.5 0 4.4 0 8.8-0.1 13.3 0.1 2.8 0.1 4.8 1.6 4.8 4.6 0 2.6-1.5 4.5-4.3 4.6-7.9 0.1-15.9 0.1-23.9 0.1-0.4 0-1 0.3-1.2 0.6-1.9 2.4-3.5 5.1-4.7 8 26.2 0 52.4 0 78.6 0z"/>
				<path id="&lt;Path&gt;" class="s0" d="m37.1 73.8c-5.1 0.1-8.3-3.4-8.9-8.8-0.3-2.2-1.4-4.8 0.3-6.7 1.9-2 4.7-1.2 7.1-0.7 3.7 0.8 7.5 0.8 11.3 0.9 2.1 0.1 4.2 0.3 5.1 2.6 1 2.5 0.4 4.8-1.5 6.7-4 3.9-9 5.6-13.4 6z"/>
				<path id="&lt;Path&gt;" class="s0" d="m73.3 58.2c3.3 0.3 7-1.1 10.9-0.9 4.4 0.2 4.6 0.5 4.3 5.6-0.2 5.4-3 9.9-6.7 10.4-4.2 0.6-8-0.9-11.7-2.8-2.2-1.1-4.3-2.6-5.4-4.9-2-4.4 0-7.3 5-7.4 1-0.1 2 0 3.6 0z"/>
				<path id="&lt;Path&gt;" class="s0" d="m49.9 89.8c1.5-4.8 2.7-10.2 6.7-14.1 1.9-1.9 4.9-0.4 6.5 3 1.4 3 2.6 6.1 3.8 9.2 0.7 1.8 0.8 3.6-1.8 4.3-1.4 0.4-2.8 1.2-4 2.1-3.4 2.5-5.5-0.7-8-1.7-1.1-0.5-2.9-0.5-3.2-2.8z"/>
			</g>
			<g id="&lt;Group&gt;">
				<path id="&lt;Compound Path&gt;" class="s0" d="m195.1 25.8v56.2q0 9.7-7.2 15-7.2 5.2-20.6 5.2-13.4 0-20.5-5.2-7.1-5.3-7.1-15v-56.2q0-2.9 5.1-2.9 5.1 0 5.1 2.9v57.5q0 10 17.4 10 8.6 0 13.1-2.6 4.4-2.5 4.4-7.4v-57.5q0-2.9 5.2-2.9 5.1 0 5.1 2.9z"/>
				<path id="&lt;Compound Path&gt;" class="s0" d="m209.7 5.6h53.7q2.6 0 2.6 4.5 0 4.5-2.6 4.5h-21.7v83.4q0 3-5.1 3-5.2 0-5.2-3v-83.4h-21.7q-2.6 0-2.6-4.5 0-4.5 2.6-4.5z"/>
				<path id="&lt;Compound Path&gt;" class="s0" d="m332 25.8v56.2q0 9.7-7.1 15-7.2 5.2-20.6 5.2-13.5 0-20.6-5.2-7.1-5.3-7.1-15v-56.2q0-2.9 5.1-2.9 5.2 0 5.2 2.9v57.5q0 10 17.4 10 8.5 0 13-2.6 4.5-2.5 4.5-7.4v-57.5q0-2.9 5.1-2.9 5.1 0 5.1 2.9z"/>
				<path id="&lt;Compound Path&gt;" class="s0" d="m384.4 32.5h-11.1q-2.6 0-2.6-4.5 0-4.5 2.6-4.5h11.1q13.4 0 20.5 5.2 7.1 5.2 7.1 15v38.3q0 9.7-7.1 15-7.2 5.2-20.6 5.2-13.5 0-20.6-5.2-7.1-5.3-7.1-15v-81.1q0-3 5.1-3 5.2 0 5.2 3v82.4q0 10 17.4 10 8.5 0 13-2.6 4.5-2.5 4.5-7.4v-40.8q0-10-17.4-10z"/>
				<path id="&lt;Compound Path&gt;" fill-rule="evenodd" class="s0" d="m489.1 41.6v3.8q0 7-1.9 11.2-1.8 4.2-6.3 6.2-4.5 2.1-12.7 2.8l-24.9 2.5v15.2q0 10 16.6 10 9.7 0 14.3-2.2 4.7-2.2 4.7-6.5v-4.9q0-2.9 5.1-2.9 5.1 0 5.1 2.9v3.6q0 18.9-28.2 18.9-13.4 0-20.6-5.2-7.3-5.3-7.3-15v-40.2q0-9.8 7.8-15 7.7-5.2 22.1-5.2 13.4 0 19.8 4.9 6.4 4.8 6.4 15.1zm-45.8-1.1v18.6l24-2.4q7.1-0.7 9.3-2.9 2.3-2.2 2.3-8.4v-4.9q0-4.8-4.7-7.4-4.6-2.5-13.3-2.5-8.5 0-13.1 2.5-4.5 2.6-4.5 7.4z"/>
			</g>
			<g id="&lt;Group&gt;">
				<path id="&lt;Compound Path&gt;" class="s0" d="m143.6 124.2q-1.6 0-2.8-0.5-1.3-0.5-2.2-1.5-0.8-1-1-2.4l1.5-0.2q0.4 1.4 1.7 2.3 1.2 0.8 2.9 0.8 1.1 0 2-0.3 0.9-0.4 1.4-1 0.5-0.7 0.5-1.6 0-0.6-0.2-1-0.2-0.4-0.5-0.7-0.4-0.3-0.8-0.5-0.4-0.2-0.8-0.3l-3.9-1.1q-0.7-0.2-1.3-0.6-0.6-0.3-1-0.7-0.5-0.5-0.7-1-0.2-0.6-0.2-1.4 0-1.3 0.6-2.3 0.7-0.9 1.9-1.4 1.2-0.5 2.7-0.5 1.5 0 2.7 0.5 1.2 0.6 2 1.6 0.8 1 1.1 2.4l-1.7 0.3q-0.1-1-0.7-1.8-0.6-0.7-1.5-1.1-0.9-0.4-1.9-0.4-1.1 0-1.9 0.3-0.8 0.4-1.2 1-0.5 0.6-0.5 1.3 0 0.8 0.4 1.3 0.5 0.4 1.1 0.7 0.6 0.3 1.2 0.4l3 0.9q0.5 0.2 1.1 0.4 0.6 0.2 1.2 0.7 0.6 0.4 1 1.1 0.4 0.7 0.4 1.8 0 1.1-0.4 1.9-0.4 0.9-1.2 1.4-0.7 0.6-1.7 0.9-1.1 0.3-2.3 0.3z"/>
				<path id="&lt;Compound Path&gt;" fill-rule="evenodd" class="s0" d="m155.8 123.9l5.3-15.3h2.1l5.2 15.3h-1.6l-1.3-3.7h0.6v-1.5h-1.1l-2.9-8.3-2.9 8.3h-1v1.5h0.5l-1.3 3.7zm6.3-13.5l0.3-0.9h-0.6zm3.4 9.8l-0.5-1.5h-5.8l-0.5 1.5z"/>
				<path id="&lt;Compound Path&gt;" class="s0" d="m175.6 123.9v-15.3h1.6v15.3z"/>
				<path id="&lt;Compound Path&gt;" class="s0" d="m185.3 123.9v-15.3h1.5v13.8h7.3v1.5z"/>
				<path id="&lt;Compound Path&gt;" class="s0" d="m212.7 123.9v-13.8h-5.3v-1.5h12.2v1.5h-5.3v13.8z"/>
				<path id="&lt;Compound Path&gt;" class="s0" d="m226.7 123.9v-15.3h1.6v6.9h8.4v-6.9h1.6v15.3h-1.6v-6.9h-8.4v6.9z"/>
				<path id="&lt;Compound Path&gt;" class="s0" d="m245.9 123.9v-15.3h9.6v1.5h-8v5.3h6.7v1.5h-6.7v5.5h8v1.5z"/>
				<path id="&lt;Compound Path&gt;" class="s0" d="m277.6 124.2q-1.6 0-2.9-0.5-1.3-0.5-2.1-1.5-0.9-1-1.1-2.4l1.6-0.2q0.4 1.4 1.6 2.3 1.2 0.8 2.9 0.8 1.2 0 2.1-0.3 0.9-0.4 1.4-1 0.5-0.7 0.5-1.6 0-0.6-0.2-1-0.3-0.4-0.6-0.7-0.4-0.3-0.8-0.5-0.4-0.2-0.8-0.3l-3.9-1.1q-0.7-0.2-1.3-0.6-0.5-0.3-1-0.7-0.4-0.5-0.7-1-0.2-0.6-0.2-1.4 0-1.3 0.7-2.3 0.6-0.9 1.8-1.4 1.2-0.5 2.7-0.5 1.5 0 2.7 0.5 1.3 0.6 2 1.6 0.8 1 1.1 2.4l-1.7 0.3q-0.1-1-0.7-1.8-0.6-0.7-1.5-1.1-0.8-0.4-1.9-0.4-1 0-1.8 0.3-0.8 0.4-1.3 1-0.5 0.6-0.5 1.3 0 0.8 0.5 1.3 0.4 0.4 1 0.7 0.7 0.3 1.2 0.4l3 0.9q0.5 0.2 1.1 0.4 0.7 0.2 1.3 0.7 0.6 0.4 1 1.1 0.4 0.7 0.4 1.8 0 1.1-0.5 1.9-0.4 0.9-1.1 1.4-0.8 0.6-1.8 0.9-1 0.3-2.2 0.3z"/>
				<path id="&lt;Compound Path&gt;" class="s0" d="m294.4 123.9v-13.8h-5.4v-1.5h12.3v1.5h-5.3v13.8z"/>
				<path id="&lt;Compound Path&gt;" fill-rule="evenodd" class="s0" d="m308 123.9v-15.3h5.9q0.2 0 0.5 0 0.3 0 0.5 0.1 1.2 0.2 2.1 0.8 0.8 0.7 1.2 1.7 0.5 1 0.5 2.2 0 1.7-0.9 3-0.7 0.9-1.8 1.3l3 6.2h-1.8l-2.8-5.8h-4.9v5.8zm1.6-7.3h4.3q0.2 0 0.4 0 0.3 0 0.5-0.1 0.8-0.2 1.3-0.6 0.5-0.5 0.8-1.2 0.2-0.6 0.2-1.3 0-0.8-0.2-1.4-0.3-0.7-0.8-1.2-0.5-0.4-1.3-0.6-0.2-0.1-0.5-0.1-0.2 0-0.4 0h-4.3z"/>
				<path id="&lt;Compound Path&gt;" class="s0" d="m326.6 123.9v-15.3h9.6v1.5h-8v5.3h6.7v1.5h-6.7v5.5h8v1.5z"/>
				<path id="&lt;Compound Path&gt;" fill-rule="evenodd" class="s0" d="m342.1 123.9l5.3-15.3h2.1l5.2 15.3h-1.6l-1.3-3.7h0.6v-1.5h-1.1l-2.9-8.3-2.9 8.3h-1v1.5h0.5l-1.2 3.7zm6.2-13.5l0.4-0.9h-0.7zm3.4 9.8l-0.5-1.5h-5.7l-0.6 1.5z"/>
				<path id="&lt;Compound Path&gt;" class="s0" d="m361.2 123.9v-15.3h1.5l6 12.9 6-12.9h1.4v15.3h-1.5v-11.8l-5.4 11.8h-1l-5.5-11.8v11.8z"/>
				<path id="&lt;Compound Path&gt;" class="s0" d="m384.3 123.9v-15.3h1.6v15.3z"/>
				<path id="&lt;Compound Path&gt;" class="s0" d="m394.1 123.9v-15.3h1.5l8.5 12.5v-12.5h1.5v15.3h-1.5l-8.5-12.5v12.5z"/>
				<path id="&lt;Compound Path&gt;" class="s0" d="m419.5 124.2q-1.6 0-2.9-0.5-1.3-0.6-2.2-1.6-0.9-1.1-1.4-2.6-0.5-1.4-0.5-3.2 0-2.4 0.9-4.2 0.8-1.8 2.4-2.8 1.5-1 3.7-1 2.5 0 4 1.1 1.5 1.2 2.1 3.1l-1.5 0.4q-0.5-1.4-1.7-2.3-1.1-0.8-2.8-0.8-1.8 0-3 0.8-1.2 0.8-1.8 2.3-0.6 1.4-0.6 3.4 0 1.9 0.6 3.3 0.6 1.5 1.8 2.3 1.2 0.8 3 0.8 1.6 0 2.7-0.6 1.1-0.6 1.6-1.8 0.6-1.2 0.7-2.9h-3.6v-1.3h5.2q0 0.3 0 0.5 0 0.3 0 0.4 0 2.1-0.7 3.7-0.7 1.6-2.2 2.6-1.5 0.9-3.8 0.9z"/>
				<path id="&lt;Compound Path&gt;" class="s0" d="m447.8 124.2q-1.6 0-2.9-0.5-1.3-0.5-2.1-1.5-0.8-1-1.1-2.4l1.6-0.2q0.4 1.4 1.6 2.3 1.3 0.8 3 0.8 1.1 0 2-0.3 0.9-0.4 1.4-1 0.5-0.7 0.5-1.6 0-0.6-0.2-1-0.2-0.4-0.6-0.7-0.3-0.3-0.7-0.5-0.5-0.2-0.8-0.3l-3.9-1.1q-0.7-0.2-1.3-0.6-0.6-0.3-1.1-0.7-0.4-0.5-0.6-1-0.3-0.6-0.3-1.4 0-1.3 0.7-2.3 0.7-0.9 1.8-1.4 1.2-0.5 2.7-0.5 1.6 0 2.8 0.5 1.2 0.6 2 1.6 0.8 1 1 2.4l-1.6 0.3q-0.2-1-0.8-1.8-0.5-0.7-1.4-1.1-0.9-0.4-2-0.4-1 0-1.8 0.3-0.8 0.4-1.3 1-0.4 0.6-0.4 1.3 0 0.8 0.4 1.3 0.4 0.4 1.1 0.7 0.6 0.3 1.2 0.4l3 0.9q0.4 0.2 1.1 0.4 0.6 0.2 1.2 0.7 0.6 0.4 1 1.1 0.4 0.7 0.4 1.8 0 1.1-0.4 1.9-0.4 0.9-1.2 1.4-0.8 0.6-1.8 0.9-1 0.3-2.2 0.3z"/>
				<path id="&lt;Compound Path&gt;" class="s0" d="m460.4 123.9v-15.3h9.5v1.5h-8v5.3h6.8v1.5h-6.8v5.5h8v1.5z"/>
				<path id="&lt;Compound Path&gt;" fill-rule="evenodd" class="s0" d="m476.7 123.9l5.3-15.3h2.1l5.2 15.3h-1.6l-1.3-3.7h0.6v-1.5h-1.1l-2.9-8.3-2.9 8.3h-1v1.5h0.5l-1.3 3.7zm6.3-13.5l0.3-0.9h-0.6zm3.4 9.8l-0.5-1.5h-5.8l-0.5 1.5z"/>
			</g>
		</g>
	</g>
</svg>